# xmcd
#
# Track frame offsets:
#	150
#	20653
#	39299
#	51414
#	64807
#	77243
#	98885
#	127513
#	141599
#	156801
#	175040
#	194788
#	209121
#	230854
#	244819
#	270567
#	281397
#	298491
#	317491
#	336734
#
# Disc length: 4769
#
# Revision: 1
# Processed by: cddbd v1.5.1PL0 Copyright (c) Steve Scherf et al.
# Submitted via: dBpowerAMP V4.0
# Normalized: r0:TSWAP
#
DISCID=41129f14
DTITLE=Various Artist - Sweet Home Chicago - CD3
DYEAR=1900
DGENRE=Blues
TTITLE0=Muddy Waters - She´s Nineteen Years Old
TTITLE1=David Honeyboy Edwards - Big Katie Allen
TTITLE2=Hound Dog Taylor - My Baby´s Coming Home
TTITLE3=Jimmy Reed - Hard Walking Hannah
TTITLE4=Eddie Boyd - The Blues Is Here To Stay
TTITLE5=Willie Dixon - Spoonful
TTITLE6=Buddy Guy - First Time I Met The Blues
TTITLE7=Homesick James - Ny Baby´s Gone
TTITLE8=Junior Wells - Hoodoo Man
TTITLE9=Koko Taylor - Wang Dang Doodle
TTITLE10=Fenton Robinson - Somebody PleaseLoan Me A Dime
TTITLE11=Eddie C Campbell - Look What You Done
TTITLE12=Eddie Clearwater - I Don´t Know Why
TTITLE13=James Cotton - One More Mile
TTITLE14=Luther Allison - You´re Gonna Need Me
TTITLE15=Little Mac - Times Are Gettin´ Tougher
TTITLE16=Sunnyland Slim - Too Late To Pray
TTITLE17=Carey Bell - You Went Away Baby
TTITLE18=Byther Smith - Tell Me How You Like It
TTITLE19=Joe Carter - Sweet Home Chicago
EXTD=
EXTT0=
EXTT1=
EXTT2=
EXTT3=
EXTT4=
EXTT5=
EXTT6=
EXTT7=
EXTT8=
EXTT9=
EXTT10=
EXTT11=
EXTT12=
EXTT13=
EXTT14=
EXTT15=
EXTT16=
EXTT17=
EXTT18=
EXTT19=
PLAYORDER=
